# xmcd
#
# Track frame offsets:
#	150
#	18827
#	34185
#	49002
#	62027
#	85382
#	104985
#	127012
#	139975
#	155750
#	174765
#	189110
#	216800
#	232582
#
# Disc length: 3368 seconds
#
# Revision: 4
# Processed by: cddbd v1.5.1PL2 Copyright (c) Steve Scherf et al.
# Submitted via: MusicManager 7.3.0.0 
#
DISCID=bb0d260e
DTITLE=James Booker - New Orleans Keyboard King
DYEAR=1977
DGENRE=Blues
TTITLE0=How Do You Feel
TTITLE1=Classified
TTITLE2=Blues Rhapsody
TTITLE3=Rockin' Pneumonia
TTITLE4=Please Send Me Someone To Love
TTITLE5=All By Myself
TTITLE6=Ain't Nobody's Business
TTITLE7=Something You Got
TTITLE8=Holland And Hamburg
TTITLE9=Ray Charles Medley
TTITLE10=Loberta
TTITLE11=Junco Partner
TTITLE12=Drown In The River
TTITLE13=Goodnight Sweetheart
EXTD=BLU NC 079
EXTT0=
EXTT1=
EXTT2=
EXTT3=
EXTT4=
EXTT5=
EXTT6=
EXTT7=
EXTT8=
EXTT9=
EXTT10=
EXTT11=
EXTT12=
EXTT13=
PLAYORDER=
